<?xml version="1.0" encoding="UTF-8" standalone="no"?>
<svg
   height="128"
   width="128"
   version="1.1"
   id="svg26"
   sodipodi:docname="icon.svg"
   xml:space="preserve"
   inkscape:version="1.2.2 (732a01da63, 2022-12-09)"
   xmlns:inkscape="http://www.inkscape.org/namespaces/inkscape"
   xmlns:sodipodi="http://sodipodi.sourceforge.net/DTD/sodipodi-0.dtd"
   xmlns="http://www.w3.org/2000/svg"
   xmlns:svg="http://www.w3.org/2000/svg"><defs
     id="defs30" /><sodipodi:namedview
     id="namedview28"
     pagecolor="#505050"
     bordercolor="#eeeeee"
     borderopacity="1"
     inkscape:showpageshadow="0"
     inkscape:pageopacity="0"
     inkscape:pagecheckerboard="0"
     inkscape:deskcolor="#505050"
     showgrid="false"
     inkscape:zoom="3.6875"
     inkscape:cx="51.254237"
     inkscape:cy="60.474576"
     inkscape:window-width="1600"
     inkscape:window-height="877"
     inkscape:window-x="-8"
     inkscape:window-y="-8"
     inkscape:window-maximized="1"
     inkscape:current-layer="g465" /><g
     id="g465"
     transform="matrix(0.13014502,0,0,0.13014502,14.372881,-2.3089708e-4)"><path
       d="m 455.65,854.76 c 13.35,36.24 36.5,56.08 77.76,50.14 16.85,-2.42 34.34,-0.88 51.51,-0.37 24.83,0.74 44.58,-7.45 57,-30 33.23,5.78 68.79,6.3 89.77,39.76 v 14.83 c -6.27,16.07 -19.92,22.68 -35,28.05 C 646.92,975 595,978.41 542.82,981.08 c -9.56,0.49 -19.5,-2.78 -28.67,2.44 H 281.8 c -32.3,-5.28 -65.22,-2.77 -97.51,-7.8 -32.48,-5.05 -65,-10.15 -95.17,-24.24 -12.86,-6 -25.27,-13.23 -25.06,-30.21 0.21,-16.98 12.48,-24.82 25.94,-29.19 22,-7.14 42.74,-22.53 68,-12.76 4.08,31.52 23.62,46.44 52.76,56.7 59.26,20.85 113.19,19.56 165,-20.65 20.17,-15.63 20.23,-35.79 25,-56 17.53,-10.58 36.24,-6.84 54.89,-4.61 z"
       fill="#373b3c"
       fill-rule="evenodd"
       id="path434"
       style="fill:#000000;fill-opacity:0.44192636" /><path
       d="M 0,617.68 V 494.09 A 1210,1210 0 0 0 4.71,364 C 3.54,299.78 29.58,264.92 91,255.35 c 5.68,-0.88 11.18,-3.38 16.9,-3.56 36.47,-1.17 37,0.13 42.78,-42.23 6.62,-48.24 21.75,-94.27 47.73,-134.1 27.41,-42 67,-73 121.49,-72.93 51.83,0.06 104.66,-7.48 155.3,3.2 80.56,17 147.15,56.74 179.87,138.12 3.47,8.62 7.72,16.46 15.14,22.11 35.1,26.75 55,62.28 61.48,105.66 v 59.32 c -4.25,22.65 -12.1,43.25 -26.08,62.38 -12.35,16.89 -9,38.8 -4.66,57.41 17.25,74.2 4,146.87 -7.4,219.83 -6.71,42.89 -14.71,85.57 -19.92,128.69 -3.38,28 -9.94,54.93 -26.27,78.62 C 633,902.28 611,912 583.37,911.49 c -17.21,-0.32 -34.43,0 -51.65,0 -49.84,0 -62.49,-8.5 -81.6,-54.35 -8.59,-20.53 -12.4,-42 -12.3,-64.25 0.05,-10.26 -2,-21.27 -15.08,-20.63 -13.08,0.64 -9.93,12.85 -10.25,21 -0.91,22.71 1.43,45.62 -5.06,67.93 -9.17,50.52 -49.43,87.59 -101.7,93.81 -43.05,5.16 -83.62,-4.58 -121.74,-23.13 -20.26,-9.87 -29.75,-29.75 -32.36,-52.27 -0.51,-30.32 -6,-60.26 -6.83,-90.59 C 144.34,771.7 136,760.78 117,763.2 56.58,770.9 12.26,723.52 5,661.05 3.23,646.6 4.86,631.75 0,617.68 Z"
       fill="#010000"
       id="path432"
       style="fill:#1b0809;fill-opacity:1" /><path
       d="M 241.38,113.08 C 270.61,76.43 304,49 355.58,56.17 c 19.42,2.68 39.42,2.39 59.07,2.11 55.61,-0.8 102.76,18.15 141,58.7 4.24,4.5 12.64,8.25 9.49,15.54 -2.87,6.65 -11.38,5.65 -17.81,5.58 -43.53,-0.44 -87.14,-3.8 -130.35,4.74 -18.51,3.65 -37.56,5.54 -55.45,11.17 -29.93,9.42 -50.44,31.68 -53.39,62 -5.58,57.3 -6.09,114.45 25.4,167.4 13.67,23 33.31,35.43 55.19,46.37 52.46,26.22 107,19.6 161.45,8.12 23.25,-4.9 46.85,-9.57 69,-17.83 23.19,-8.65 25.3,1.94 23.46,19.91 -1.74,34.28 -4.31,68.16 -13.12,101.84 -18.34,70.16 -48.28,93.37 -119.13,104.44 -60.95,9.52 -118.17,-5.39 -175.9,-15.84 -33.16,-6 -50.78,-38.24 -63.45,-67.47 -23.66,-54.55 -35.08,-112.2 -42.74,-171.57 -6.47,-50.2 -5.28,-100.1 -8.62,-150 -3.07,-45.18 14.13,-85.67 21.7,-128.3 z"
       fill="#c01701"
       fill-rule="evenodd"
       id="path436" /><path
       d="m 241.38,113.08 c 2,23.29 -2.57,45.68 -10.31,67.39 -2.57,7.22 -3.34,14.27 -3.7,21.66 a 1111.07,1111.07 0 0 0 11.44,223.38 c 7.71,49.69 17.74,100.84 43.2,144.82 17.53,30.29 38.74,59.88 84.33,58.67 34.43,-0.91 68.27,18.55 104.19,13.07 28.12,-4.29 56.94,-1.59 84.59,-12.14 30.13,-11.49 48.33,-32.23 58.45,-61.65 12.58,-36.54 20,-74.18 24.12,-112.53 0.61,-5.65 -0.44,-11.69 4.9,-15.82 13.53,107.36 2.63,212.59 -27,316.29 -5.76,20.14 -1.34,40.94 -1.8,61.43 -0.78,34.53 -5.58,39.92 -39,43.15 -9.79,0.94 -19.53,2.84 -29.34,3.13 -37.91,1.13 -52.32,-12.1 -50.81,-50.52 1.05,-26.84 1.19,-55.12 37,-64.56 15,-3.94 27.4,-16.43 43.19,-32.84 -30.27,4 -54.47,5.56 -78.78,5.54 a 439.69,439.69 0 0 1 -85.54,-8.63 c -11.37,-2.25 -23,-3.06 -34.32,-0.19 -11.84,3 -19.57,9.18 -21.21,23.46 -3.47,30.26 -5.41,60.41 -4.46,90.87 1.33,42.61 -24,69.1 -67.38,71.81 -22.86,1.43 -43.69,-5.52 -64.21,-14.56 -8.12,-3.58 -9.66,-9.54 -10.69,-17.49 -20.7,-160.18 -21.75,-321.09 -19.94,-482.24 0.79,-69.95 9.37,-138.54 26.89,-205.94 5.87,-22.64 17.3,-43.75 26.19,-65.56 z"
       fill="#770a39"
       fill-rule="evenodd"
       id="path438" /><path
       d="m 137.84,370 c 0.31,83.9 0.39,167.81 1.11,251.7 0.15,17.17 3.14,34.29 4,51.48 1.67,32.5 -16,43.82 -46.51,29.54 -23.62,-11.07 -34.7,-27.21 -39.07,-56.1 -13.48,-89 -1.81,-176.91 2.73,-265.23 0.11,-2.18 2.21,-4.26 3.38,-6.39 12.33,0.75 23.57,-3.79 35.17,-6.89 13.15,-3.48 26.57,-7.47 39.19,1.89 z"
       fill="#760b39"
       fill-rule="evenodd"
       id="path440" /><path
       d="M 682.57,276.32 C 691,308 676.27,342 641.21,359 581.07,388.19 517.79,404.48 450.35,389 417,381.37 390.58,360.9 369,335.76 342,304.3 350.53,228.2 381.49,203.32 392.46,208.87 394,219.91 397,230 c 18,60.43 43.4,79.62 106.8,79.27 41.82,-0.23 83.21,-5.92 124.66,-10.84 20.21,-2.38 36.01,-14.91 54.11,-22.11 z"
       fill="#4a646e"
       fill-rule="evenodd"
       id="path442" /><path
       d="m 682.57,276.32 c -12.14,22.38 -35.06,27.3 -56.36,29.83 -44.71,5.31 -89.61,10 -134.86,9.52 -52.9,-0.59 -83.84,-23.69 -98.27,-74.75 -3.56,-12.61 -7.68,-25.07 -11.55,-37.6 49.57,-10.2 98.71,-24.95 150,-21.14 37.64,2.81 74.32,11.93 106.7,32.34 22.67,14.31 39.92,33.77 44.34,61.8 z"
       fill="#98c7dc"
       fill-rule="evenodd"
       id="path444" /><path
       d="m 137.84,370 a 145.49,145.49 0 0 0 -55.37,9.77 c -6.42,2.47 -16,9.63 -19,-4.77 1.11,-8.07 1.9,-16.21 3.39,-24.21 6.61,-35.51 33.34,-51 67.63,-40 9.06,2.9 7.91,9 7.38,15.42 -1.17,14.64 -2.66,29.23 -4.03,43.79 z"
       fill="#bd1804"
       fill-rule="evenodd"
       id="path446" /><path
       d="m 581.85,261.71 c -24.38,-2.69 -55.93,-6.6 -87.57,-9.5 -16.59,-1.51 -20,-12.29 -20,-25.56 0,-15.42 9.82,-24.53 23.58,-26.74 38,-6.12 74.56,3.79 110.87,13.37 a 36.82,36.82 0 0 1 20.19,13.52 c 5,6.61 10.63,13.56 6.76,22.34 -4,9 -11.4,13.42 -21.81,12.69 -8.23,-0.58 -16.48,-0.12 -32.02,-0.12 z"
       fill="#fbfdfc"
       fill-rule="evenodd"
       id="path448" /></g></svg>
